<svg width="16" height="16" viewBox="0 0 16 16" fill="none" xmlns="http://www.w3.org/2000/svg">
<g clip-path="url(#clip0)">
<path fill-rule="evenodd" clip-rule="evenodd" d="M12.643 15C13.979 15 15 13.845 15 12.5V5H1V12.5C1 13.845 2.021 15 3.357 15H12.643ZM6 7C5.86739 7 5.74021 7.05268 5.64645 7.14645C5.55268 7.24021 5.5 7.36739 5.5 7.5C5.5 7.63261 5.55268 7.75979 5.64645 7.85355C5.74021 7.94732 5.86739 8 6 8H10C10.1326 8 10.2598 7.94732 10.3536 7.85355C10.4473 7.75979 10.5 7.63261 10.5 7.5C10.5 7.36739 10.4473 7.24021 10.3536 7.14645C10.2598 7.05268 10.1326 7 10 7H6ZM0.8 1C0.587827 1 0.384344 1.08429 0.234315 1.23431C0.0842855 1.38434 0 1.58783 0 1.8L0 3C0 3.21217 0.0842855 3.41566 0.234315 3.56569C0.384344 3.71571 0.587827 3.8 0.8 3.8H15.2C15.4122 3.8 15.6157 3.71571 15.7657 3.56569C15.9157 3.41566 16 3.21217 16 3V1.8C16 1.58783 15.9157 1.38434 15.7657 1.23431C15.6157 1.08429 15.4122 1 15.2 1H0.8Z" fill="black"/>
</g>
<defs>
<clipPath id="clip0">
<rect width="16" height="16" fill="white"/>
</clipPath>
</defs>
</svg>
