<svg viewBox="0 0 16 16" fill="none" xmlns="http://www.w3.org/2000/svg">
<path d="M8 10C9.10457 10 10 9.10457 10 8C10 6.89543 9.10457 6 8 6C6.89543 6 6 6.89543 6 8C6 9.10457 6.89543 10 8 10Z"/>
<path d="M15.47 7.83C14.8819 6.30882 13.861 4.99331 12.5334 4.04604C11.2058 3.09878 9.62974 2.56129 8 2.5C6.37026 2.56129 4.79419 3.09878 3.4666 4.04604C2.13901 4.99331 1.11808 6.30882 0.53 7.83C0.490284 7.93985 0.490284 8.06015 0.53 8.17C1.11808 9.69118 2.13901 11.0067 3.4666 11.954C4.79419 12.9012 6.37026 13.4387 8 13.5C9.62974 13.4387 11.2058 12.9012 12.5334 11.954C13.861 11.0067 14.8819 9.69118 15.47 8.17C15.5097 8.06015 15.5097 7.93985 15.47 7.83V7.83ZM8 11.25C7.35721 11.25 6.72886 11.0594 6.1944 10.7023C5.65994 10.3452 5.24338 9.83758 4.99739 9.24372C4.75141 8.64986 4.68705 7.99639 4.81245 7.36596C4.93785 6.73552 5.24738 6.15642 5.7019 5.7019C6.15642 5.24738 6.73552 4.93785 7.36596 4.81245C7.99639 4.68705 8.64986 4.75141 9.24372 4.99739C9.83758 5.24338 10.3452 5.65994 10.7023 6.1944C11.0594 6.72886 11.25 7.35721 11.25 8C11.2487 8.86155 10.9058 9.68743 10.2966 10.2966C9.68743 10.9058 8.86155 11.2487 8 11.25V11.25Z"/>
</svg>
